<svg viewBox="0 0 21 30" fill="none" xmlns="http://www.w3.org/2000/svg">
<path d="M1.96275 29.7651C2.12629 29.9217 2.28983 30 2.6169 30C2.86221 30 3.10751 29.9217 3.35282 29.7651L20.4425 15.6265C20.606 15.4699 20.7695 15.2349 20.7695 15C20.7695 14.6867 20.606 14.5301 20.4425 14.3735L3.35282 0.234945C3.10751 0.0783142 2.86221 -3.03405e-07 2.6169 -3.24791e-07C2.28983 -3.53306e-07 2.12629 0.0783143 1.96275 0.234945L0.32738 1.80125C0.0820741 1.95788 0.000305887 2.11451 0.000305873 2.42778C0.000305863 2.66272 0.0820742 2.89767 0.32738 3.13261L15.1275 15L0.327379 26.8674C0.0820733 27.024 0.000305083 27.259 0.000305069 27.5722C0.000305059 27.8072 0.0820733 28.0421 0.327379 28.1987L1.96275 29.7651Z" fill="black"/>
</svg>
