<svg viewBox="0 0 22 36" fill="none" xmlns="http://www.w3.org/2000/svg">
<path d="M19.5587 35.7557C19.3886 35.9186 19.2185 36 18.8784 36C18.6232 36 18.3681 35.9186 18.113 35.7557L0.339772 18.6516C0.169692 18.4887 -0.000386064 18.2443 -0.000386074 18C-0.000386089 17.6742 0.169692 17.5113 0.339772 17.3484L18.113 0.244343C18.3681 0.0814441 18.6232 2.59482e-07 18.8783 2.37241e-07C19.2185 2.07586e-07 19.3886 0.081444 19.5587 0.244343L21.2595 1.8733C21.5146 2.0362 21.5996 2.19909 21.5996 2.52489C21.5996 2.76923 21.5146 3.01357 21.2595 3.25792L5.86733 18L21.2595 32.7421C21.5146 32.905 21.5996 33.1493 21.5996 33.4751C21.5996 33.7195 21.5146 33.9638 21.2595 34.1267L19.5587 35.7557Z" fill="#313444"/>
</svg>
